<svg xmlns="http://www.w3.org/2000/svg" width="19" height="18" viewBox="0 0 19 18">
  <metadata><?xpacket begin="﻿" id="W5M0MpCehiHzreSzNTczkc9d"?>
<x:xmpmeta xmlns:x="adobe:ns:meta/" x:xmptk="Adobe XMP Core 5.6-c140 79.160451, 2017/05/06-01:08:21        ">
   <rdf:RDF xmlns:rdf="http://www.w3.org/1999/02/22-rdf-syntax-ns#">
      <rdf:Description rdf:about=""/>
   </rdf:RDF>
</x:xmpmeta>
                                                                                                    
                                                                                                    
                                                                                                    
                                                                                                    
                                                                                                    
                                                                                                    
                                                                                                    
                                                                                                    
                                                                                                    
                                                                                                    
                                                                                                    
                                                                                                    
                                                                                                    
                                                                                                    
                                                                                                    
                                                                                                    
                                                                                                    
                                                                                                    
                                                                                                    
                                                                                                    
                           
<?xpacket end="w"?></metadata>
<defs>
    <style>
      .cls-1 {
        fill: #585858;
        fill-opacity: 0;
        stroke: #00a3e7;
        stroke-linejoin: round;
        stroke-width: 1px;
        fill-rule: evenodd;
      }
    </style>
  </defs>
  <path id="Forma_1_copy" data-name="Forma 1 copy" class="cls-1" d="M17.725,4.026a0.518,0.518,0,0,0-.761-0.243L13.13,6.258l-0.6.816a2.155,2.155,0,0,1,.345,1.813l-0.427,1.606a6.056,6.056,0,0,0,4.675-2.3A4.411,4.411,0,0,0,17.725,4.026ZM7.069,7.385l-1.588.374a3.082,3.082,0,0,0-.713.27L5.468,10,5.5,9.98a1.03,1.03,0,0,1,.544-0.156H7.333c0.071,0,.141.008,0.212,0.009A19.774,19.774,0,0,0,7.069,7.385ZM4,7.982L1.555,10.05a1.041,1.041,0,0,0-.221,1.684,1.2,1.2,0,0,0,1.444.135l1.842-1.3Zm3.794,5.652-1.345,1.69a1.028,1.028,0,0,0,.143,1.359,1.188,1.188,0,0,0,1.79-.208l1.569-2.164Zm7.25-11.657a0.466,0.466,0,0,0-.258-0.716A5.223,5.223,0,0,0,8.01,7.049a16.441,16.441,0,0,1,.612,3.989v1.21a0.887,0.887,0,0,1-.165.512L8.4,12.836,10.507,13.5a2.708,2.708,0,0,0,.312-0.717L11.913,8.66a1.266,1.266,0,0,0-.358-1.237l-0.01-.01a0.427,0.427,0,0,1-.053-0.566ZM10.015,9.064a0.47,0.47,0,1,1,.5-0.469A0.484,0.484,0,0,1,10.015,9.064Z"/>
</svg>
