<svg xmlns="http://www.w3.org/2000/svg" width="19" height="19" viewBox="0 0 16 16">
  <metadata><?xpacket begin="﻿" id="W5M0MpCehiHzreSzNTczkc9d"?>
<x:xmpmeta xmlns:x="adobe:ns:meta/" x:xmptk="Adobe XMP Core 5.6-c140 79.160451, 2017/05/06-01:08:21        ">
   <rdf:RDF xmlns:rdf="http://www.w3.org/1999/02/22-rdf-syntax-ns#">
      <rdf:Description rdf:about=""/>
   </rdf:RDF>
</x:xmpmeta>
                                                                                                    
                                                                                                    
                                                                                                    
                                                                                                    
                                                                                                    
                                                                                                    
                                                                                                    
                                                                                                    
                                                                                                    
                                                                                                    
                                                                                                    
                                                                                                    
                                                                                                    
                                                                                                    
                                                                                                    
                                                                                                    
                                                                                                    
                                                                                                    
                                                                                                    
                                                                                                    
                           
<?xpacket end="w"?></metadata>
<defs>
    <style>
      .cls-1 {
        fill-rule: evenodd;
        opacity: 0.4;
      }
    </style>
  </defs>
  <path id="Forma_1_copy_3" data-name="Forma 1 copy 3" class="cls-1" d="M0.02,11.361L0,15.173a0.827,0.827,0,0,0,.235.586,0.785,0.785,0,0,0,.568.235h0l3.8-.02A0.785,0.785,0,0,0,5.17,15.74L15.763,5.166a0.825,0.825,0,0,0,0-1.153L12,0.221a0.829,0.829,0,0,0-1.155,0L8.224,2.86h0l-7.97,7.935A0.87,0.87,0,0,0,.02,11.361Zm11.416-9.42L14.079,4.58,12.591,6.065,9.948,3.427ZM1.645,11.713L8.792,4.58l2.644,2.639L4.288,14.332l-2.663.02Z"/>
</svg>
