<svg xmlns="http://www.w3.org/2000/svg" width="21" height="18" viewBox="0 0 21 18">
  <metadata><?xpacket begin="﻿" id="W5M0MpCehiHzreSzNTczkc9d"?>
<x:xmpmeta xmlns:x="adobe:ns:meta/" x:xmptk="Adobe XMP Core 5.6-c140 79.160451, 2017/05/06-01:08:21        ">
   <rdf:RDF xmlns:rdf="http://www.w3.org/1999/02/22-rdf-syntax-ns#">
      <rdf:Description rdf:about=""/>
   </rdf:RDF>
</x:xmpmeta>
                                                                                                    
                                                                                                    
                                                                                                    
                                                                                                    
                                                                                                    
                                                                                                    
                                                                                                    
                                                                                                    
                                                                                                    
                                                                                                    
                                                                                                    
                                                                                                    
                                                                                                    
                                                                                                    
                                                                                                    
                                                                                                    
                                                                                                    
                                                                                                    
                                                                                                    
                                                                                                    
                           
<?xpacket end="w"?></metadata>
<defs>
    <style>
      .cls-1 {
        fill: #00a3e7;
        fill-rule: evenodd;
      }
    </style>
  </defs>
  <path id="Rounded_Rectangle_522" data-name="Rounded Rectangle 522" class="cls-1" d="M19.183,13.056V11.512A2.471,2.471,0,0,0,16.76,9H14.74V8.581h0.606a0.617,0.617,0,0,0,.606-0.628,3.089,3.089,0,0,0-3.029-3.139H10.5A3.089,3.089,0,0,0,7.471,7.953a0.617,0.617,0,0,0,.606.628H8.683V9H5.306l-2.3-8.541A0.61,0.61,0,0,0,2.423,0H0.606A0.617,0.617,0,0,0,0,.628a0.617,0.617,0,0,0,.606.628H1.963L4.24,9.714v3.342a2.5,2.5,0,0,0-1.817,2.432A2.471,2.471,0,0,0,4.846,18C5.973,18,7.406,16.536,7,16c0,0,9,.147,9,0a2.528,2.528,0,0,0,5-.512A2.5,2.5,0,0,0,19.183,13.056ZM10.5,6.07h2.423a1.826,1.826,0,0,1,1.713,1.256H8.787A1.826,1.826,0,0,1,10.5,6.07Zm3.029,2.512V9H9.894V8.581h3.635ZM4.846,16.744a1.257,1.257,0,1,1,1.212-1.256A1.236,1.236,0,0,1,4.846,16.744Zm12.468-3.4q-0.044.028-.086,0.057l-0.017.012-0.07.052-0.021.016-0.081.066-0.01.009-0.069.062-0.02.019c-0.051.048-.1,0.1-0.146,0.152l-0.018.021-0.06.072-0.008.01c-0.022.027-.043,0.056-0.064,0.084L16.627,14l-0.05.073-0.012.018q-0.029.044-.055,0.089L16.5,14.2q-0.022.038-.042,0.076l-0.012.022q-0.024.047-.047,0.1l-0.009.02c-0.012.027-.024,0.054-0.036,0.081l-0.011.026c-0.013.033-.026,0.066-0.038,0.1l-0.005.015c-0.01.029-.02,0.059-0.029,0.089l-0.009.028c-0.01.035-.25,0.209-0.259,0.245H7c-0.009-.036.174-0.21,0.164-0.245l-0.008-.027c-0.009-.031-0.019-0.062-0.03-0.092l0-.013q-0.018-.051-0.038-0.1L7.072,14.5c-0.012-.028-0.024-0.056-0.036-0.083L7.027,14.4C7.012,14.363,7,14.331,6.98,14.3l-0.011-.021Q6.948,14.239,6.926,14.2L6.914,14.18c-0.018-.031-0.037-0.06-0.056-0.09l-0.011-.016Q6.822,14.036,6.8,14l-0.015-.021c-0.021-.028-0.042-0.057-0.064-0.084l-0.008-.009c-0.02-.025-0.04-0.049-0.061-0.073L6.63,13.791q-0.07-.079-0.147-0.152l-0.02-.019-0.07-.063-0.009-.008C6.358,13.527,6.331,13.5,6.3,13.483l-0.021-.016-0.071-.052L6.2,13.4q-0.043-.03-0.086-0.057l-0.021-.013-0.074-.044-0.021-.012L5.9,13.228l-0.019-.01L5.8,13.181,5.778,13.17l-0.1-.04-0.015-.005-0.086-.03-0.027-.009-0.1-.03L5,10H17c0.668,0,.971.819,0.971,1.511v1.544l-0.1.03-0.027.009-0.086.03-0.015.005-0.1.039-0.025.011-0.079.037-0.019.01-0.092.049-0.021.012-0.073.044Zm1.263,3.4a1.257,1.257,0,1,1,1.212-1.256A1.236,1.236,0,0,1,18.577,16.744ZM10.1,14.023m3.231,0M9.5,11a0.5,0.5,0,0,1,.5.5v2a0.5,0.5,0,1,1-1,0v-2A0.5,0.5,0,0,1,9.5,11Zm4,0a0.5,0.5,0,0,1,.5.5v2a0.5,0.5,0,0,1-1,0v-2A0.5,0.5,0,0,1,13.5,11Z"/>
</svg>
