<svg xmlns="http://www.w3.org/2000/svg" width="19" height="5" viewBox="0 0 19 5">
  <metadata><?xpacket begin="﻿" id="W5M0MpCehiHzreSzNTczkc9d"?>
<x:xmpmeta xmlns:x="adobe:ns:meta/" x:xmptk="Adobe XMP Core 5.6-c140 79.160451, 2017/05/06-01:08:21        ">
   <rdf:RDF xmlns:rdf="http://www.w3.org/1999/02/22-rdf-syntax-ns#">
      <rdf:Description rdf:about=""/>
   </rdf:RDF>
</x:xmpmeta>
                                                                                                    
                                                                                                    
                                                                                                    
                                                                                                    
                                                                                                    
                                                                                                    
                                                                                                    
                                                                                                    
                                                                                                    
                                                                                                    
                                                                                                    
                                                                                                    
                                                                                                    
                                                                                                    
                                                                                                    
                                                                                                    
                                                                                                    
                                                                                                    
                                                                                                    
                                                                                                    
                           
<?xpacket end="w"?></metadata>
<defs>
    <style>
      .cls-1 {
        fill: #00a3e7;
        fill-opacity: 0;
        stroke: #00a3e7;
        stroke-linejoin: round;
        stroke-width: 1px;
        fill-rule: evenodd;
      }
    </style>
  </defs>
  <path class="cls-1" d="M2.7,1a1.611,1.611,0,0,1,1.7,1.5A1.611,1.611,0,0,1,2.7,4,1.611,1.611,0,0,1,1,2.5,1.611,1.611,0,0,1,2.7,1ZM9.5,1a1.6,1.6,0,0,1,1.688,1.5A1.6,1.6,0,0,1,9.5,4,1.6,1.6,0,0,1,7.812,2.5,1.6,1.6,0,0,1,9.5,1Zm6.8,0A1.611,1.611,0,0,1,18,2.5,1.611,1.611,0,0,1,16.3,4a1.611,1.611,0,0,1-1.7-1.5A1.611,1.611,0,0,1,16.3,1Z"/>
</svg>
