<svg xmlns="http://www.w3.org/2000/svg" width="14" height="19" viewBox="0 0 14 19">
  <metadata><?xpacket begin="﻿" id="W5M0MpCehiHzreSzNTczkc9d"?>
<x:xmpmeta xmlns:x="adobe:ns:meta/" x:xmptk="Adobe XMP Core 5.6-c140 79.160451, 2017/05/06-01:08:21        ">
   <rdf:RDF xmlns:rdf="http://www.w3.org/1999/02/22-rdf-syntax-ns#">
      <rdf:Description rdf:about=""/>
   </rdf:RDF>
</x:xmpmeta>
                                                                                                    
                                                                                                    
                                                                                                    
                                                                                                    
                                                                                                    
                                                                                                    
                                                                                                    
                                                                                                    
                                                                                                    
                                                                                                    
                                                                                                    
                                                                                                    
                                                                                                    
                                                                                                    
                                                                                                    
                                                                                                    
                                                                                                    
                                                                                                    
                                                                                                    
                                                                                                    
                           
<?xpacket end="w"?></metadata>
<defs>
    <style>
      .cls-1 {
        fill: #585858;
        fill-rule: evenodd;
      }
    </style>
  </defs>
  <path id="Forma_1" data-name="Forma 1" class="cls-1" d="M13.995,8.531a14.3,14.3,0,0,0-.382-4.2A14.582,14.582,0,0,0,12.025.3l-0.185-.3L11.5,0.03a13.986,13.986,0,0,0-4.13,1.106A13.764,13.764,0,0,0,3.828,3.323,12.625,12.625,0,0,0,.722,7.333a6.889,6.889,0,0,0,2.425,8.917L2.053,18.463,3.106,19,4.2,16.789a6.652,6.652,0,0,0,8.481-3.33A12.836,12.836,0,0,0,13.995,8.531ZM7.766,2.279a14.066,14.066,0,0,1,2.714-.86l-2.372,4.8-2-3.077A13.128,13.128,0,0,1,7.766,2.279ZM4.556,4.273q0.271-.234.559-0.452l2.37,3.654-1.731,3.5L2.718,6.293A11.316,11.316,0,0,1,4.556,4.273ZM3.692,15.148A5.662,5.662,0,0,1,1.775,7.872c0.076-.153.155-0.3,0.236-0.451l3.122,4.812Zm9.12-6.672a11.563,11.563,0,0,1-.5,2.732l-5.5.307,1.731-3.5,4.3-.239Q12.833,8.127,12.812,8.476ZM9.161,6.756l2.373-4.8a14.668,14.668,0,0,1,.928,2.692,13.7,13.7,0,0,1,.317,1.905ZM4.745,15.688l1.441-2.915,5.657-.315c-0.069.155-.14,0.309-0.215,0.462A5.467,5.467,0,0,1,4.745,15.688Z"/>
</svg>
