<svg xmlns="http://www.w3.org/2000/svg" width="18" height="18" viewBox="0 0 18 18">
  <metadata><?xpacket begin="﻿" id="W5M0MpCehiHzreSzNTczkc9d"?>
<x:xmpmeta xmlns:x="adobe:ns:meta/" x:xmptk="Adobe XMP Core 5.6-c140 79.160451, 2017/05/06-01:08:21        ">
   <rdf:RDF xmlns:rdf="http://www.w3.org/1999/02/22-rdf-syntax-ns#">
      <rdf:Description rdf:about=""/>
   </rdf:RDF>
</x:xmpmeta>
                                                                                                    
                                                                                                    
                                                                                                    
                                                                                                    
                                                                                                    
                                                                                                    
                                                                                                    
                                                                                                    
                                                                                                    
                                                                                                    
                                                                                                    
                                                                                                    
                                                                                                    
                                                                                                    
                                                                                                    
                                                                                                    
                                                                                                    
                                                                                                    
                                                                                                    
                                                                                                    
                           
<?xpacket end="w"?></metadata>
<defs>
    <style>
      .cls-1 {
        fill: #00a3e7;
        fill-rule: evenodd;
      }
    </style>
  </defs>
  <path id="_" data-name="?" class="cls-1" d="M9,0a9,9,0,1,0,9,9A9,9,0,0,0,9,0ZM9,16.873A7.874,7.874,0,1,1,16.873,9,7.874,7.874,0,0,1,9,16.873ZM8.251,10.723l1.32-.435a0.943,0.943,0,0,1-.33-0.675c0-1.35,2.685-1.53,2.685-3.75,0-1.35-1.155-2.355-3.045-2.355a4.15,4.15,0,0,0-3.27,1.485l1,1.125A2.577,2.577,0,0,1,8.7,5.068a1.187,1.187,0,0,1,1.425,1.08c0,1.275-2.415,1.47-2.415,3.3A1.711,1.711,0,0,0,8.251,10.723Zm0.54,3.1a1.05,1.05,0,1,0-1.05-1.05A1.063,1.063,0,0,0,8.791,13.828Z"/>
</svg>
