<svg xmlns="http://www.w3.org/2000/svg" width="17" height="17" viewBox="0 0 17 17">
  <metadata><?xpacket begin="﻿" id="W5M0MpCehiHzreSzNTczkc9d"?>
<x:xmpmeta xmlns:x="adobe:ns:meta/" x:xmptk="Adobe XMP Core 5.6-c140 79.160451, 2017/05/06-01:08:21        ">
   <rdf:RDF xmlns:rdf="http://www.w3.org/1999/02/22-rdf-syntax-ns#">
      <rdf:Description rdf:about=""/>
   </rdf:RDF>
</x:xmpmeta>
                                                                                                    
                                                                                                    
                                                                                                    
                                                                                                    
                                                                                                    
                                                                                                    
                                                                                                    
                                                                                                    
                                                                                                    
                                                                                                    
                                                                                                    
                                                                                                    
                                                                                                    
                                                                                                    
                                                                                                    
                                                                                                    
                                                                                                    
                                                                                                    
                                                                                                    
                                                                                                    
                           
<?xpacket end="w"?></metadata>
<defs>
    <style>
      .cls-1 {
        fill: #585858;
        fill-rule: evenodd;
      }
    </style>
  </defs>
  <path class="cls-1" d="M16.118,6.715l-1.193-.2a6.736,6.736,0,0,0-.479-1.158l0.7-.984a1.047,1.047,0,0,0-.114-1.353L13.977,1.96a1.044,1.044,0,0,0-1.349-.114l-0.987.7a6.679,6.679,0,0,0-1.2-.494l-0.2-1.179A1.049,1.049,0,0,0,9.206,0H7.712A1.049,1.049,0,0,0,6.675.877L6.47,2.085a6.573,6.573,0,0,0-1.154.487l-0.976-.7a1.048,1.048,0,0,0-1.352.114L1.926,3.04a1.052,1.052,0,0,0-.114,1.353l0.71,1A6.582,6.582,0,0,0,2.05,6.552l-1.179.2A1.049,1.049,0,0,0-.005,7.788v1.5A1.049,1.049,0,0,0,.871,10.32l1.207,0.206a6.571,6.571,0,0,0,.486,1.154l-0.7.973a1.047,1.047,0,0,0,.114,1.353l1.058,1.058a1.041,1.041,0,0,0,.742.309,1.031,1.031,0,0,0,.607-0.2l1-.71a6.73,6.73,0,0,0,1.122.462l0.2,1.193A1.049,1.049,0,0,0,7.74,17h1.5a1.049,1.049,0,0,0,1.037-.877l0.2-1.193a6.734,6.734,0,0,0,1.157-.479l0.983,0.7a1.041,1.041,0,0,0,.611.2h0a1.042,1.042,0,0,0,.742-0.309l1.058-1.058a1.052,1.052,0,0,0,.114-1.353l-0.7-.987a6.677,6.677,0,0,0,.479-1.158l1.193-.2a1.049,1.049,0,0,0,.877-1.037V7.753A1.036,1.036,0,0,0,16.118,6.715ZM16.036,9.248a0.092,0.092,0,0,1-.078.092l-1.491.249a0.476,0.476,0,0,0-.383.352,5.687,5.687,0,0,1-.618,1.488,0.48,0.48,0,0,0,.021.522l0.877,1.236a0.1,0.1,0,0,1-.011.121L13.3,14.365a0.09,0.09,0,0,1-.067.028,0.086,0.086,0,0,1-.053-0.018L11.943,13.5a0.48,0.48,0,0,0-.522-0.021,5.674,5.674,0,0,1-1.487.618,0.471,0.471,0,0,0-.351.383L9.331,15.97a0.092,0.092,0,0,1-.092.078H7.744a0.092,0.092,0,0,1-.092-0.078L7.4,14.479A0.477,0.477,0,0,0,7.052,14.1,5.9,5.9,0,0,1,5.6,13.5a0.491,0.491,0,0,0-.241-0.064,0.467,0.467,0,0,0-.277.089l-1.242.884a0.1,0.1,0,0,1-.053.018A0.1,0.1,0,0,1,3.715,14.4L2.657,13.339a0.1,0.1,0,0,1-.011-0.121L3.52,11.993a0.486,0.486,0,0,0,.021-0.526,5.631,5.631,0,0,1-.625-1.484,0.486,0.486,0,0,0-.383-0.352l-1.5-.256A0.092,0.092,0,0,1,.953,9.283v-1.5A0.092,0.092,0,0,1,1.031,7.7l1.48-.249A0.48,0.48,0,0,0,2.9,7.092,5.681,5.681,0,0,1,3.505,5.6a0.475,0.475,0,0,0-.025-0.519L2.6,3.839a0.1,0.1,0,0,1,.011-0.121L3.665,2.66a0.09,0.09,0,0,1,.067-0.028,0.087,0.087,0,0,1,.053.018L5.011,3.523a0.486,0.486,0,0,0,.525.021A5.626,5.626,0,0,1,7.02,2.919a0.486,0.486,0,0,0,.351-0.383l0.256-1.5A0.092,0.092,0,0,1,7.719.955H9.214a0.092,0.092,0,0,1,.092.078L9.554,2.514a0.48,0.48,0,0,0,.355.387,5.764,5.764,0,0,1,1.523.625,0.48,0.48,0,0,0,.522-0.021l1.225-.881a0.106,0.106,0,0,1,.053-0.018,0.1,0.1,0,0,1,.067.028l1.058,1.058a0.1,0.1,0,0,1,.011.121L13.491,5.046a0.48,0.48,0,0,0-.021.522,5.686,5.686,0,0,1,.618,1.488,0.471,0.471,0,0,0,.383.352L15.962,7.66a0.092,0.092,0,0,1,.078.093V9.248h0ZM8.493,4.83A3.668,3.668,0,1,0,12.16,8.5,3.67,3.67,0,0,0,8.493,4.83Zm0,6.378A2.71,2.71,0,1,1,11.2,8.5,2.711,2.711,0,0,1,8.493,11.208Z"/>
</svg>
