<svg xmlns="http://www.w3.org/2000/svg" width="17" height="13" viewBox="0 0 17 13">
  <metadata><?xpacket begin="﻿" id="W5M0MpCehiHzreSzNTczkc9d"?>
<x:xmpmeta xmlns:x="adobe:ns:meta/" x:xmptk="Adobe XMP Core 5.6-c140 79.160451, 2017/05/06-01:08:21        ">
   <rdf:RDF xmlns:rdf="http://www.w3.org/1999/02/22-rdf-syntax-ns#">
      <rdf:Description rdf:about=""/>
   </rdf:RDF>
</x:xmpmeta>
                                                                                                    
                                                                                                    
                                                                                                    
                                                                                                    
                                                                                                    
                                                                                                    
                                                                                                    
                                                                                                    
                                                                                                    
                                                                                                    
                                                                                                    
                                                                                                    
                                                                                                    
                                                                                                    
                                                                                                    
                                                                                                    
                                                                                                    
                                                                                                    
                                                                                                    
                                                                                                    
                           
<?xpacket end="w"?></metadata>
<defs>
    <style>
      .cls-1 {
        fill: #00a3e7;
        fill-rule: evenodd;
      }
    </style>
  </defs>
  <path class="cls-1" d="M16.8,6.737l-1.154-.676L14.988,2.218A1.646,1.646,0,0,0,13.383.933H10.067V0.4a0.4,0.4,0,0,0-.4-0.4H0.4A0.4,0.4,0,0,0,0,.4V10.986a0.4,0.4,0,0,0,.4.4h1.28a1.992,1.992,0,0,0,3.91,0h5.065a1.992,1.992,0,0,0,3.91,0H16.6a0.4,0.4,0,0,0,.4-0.4v-3.9A0.4,0.4,0,0,0,16.8,6.737ZM3.634,12.2a1.21,1.21,0,1,1,1.2-1.21A1.205,1.205,0,0,1,3.634,12.2ZM9.27,9.142H8.676a0.4,0.4,0,0,0,0,.8H9.27v0.638H5.589a1.992,1.992,0,0,0-3.91,0H0.8V8.5H9.27V9.142h0Zm0-7.807V7.7H0.8V0.8H9.27V1.335Zm3.108,0.4h1a0.851,0.851,0,0,1,.83.664L14.8,5.919H12.378V1.737h0ZM12.61,12.2a1.2,1.2,0,0,1-1.2-1.129,0.409,0.409,0,0,0,0-.161A1.2,1.2,0,1,1,12.61,12.2ZM16.2,8.676H15.445V8.25H16.2V8.676Zm0-1.23H15.047a0.4,0.4,0,0,0-.4.4v1.23a0.4,0.4,0,0,0,.4.4H16.2v1.1H14.565a1.992,1.992,0,0,0-3.91,0H10.067V1.737h1.514V6.322a0.4,0.4,0,0,0,.4.4h3.212L16.2,7.316v0.13h0Z"/>
</svg>
